<svg width="70" height="64" viewBox="0 0 70 64" fill="none" xmlns="http://www.w3.org/2000/svg">
<path d="M64.3548 16.1935H56.3375C55.8127 13.6206 53.5331 11.6773 50.8064 11.6773C48.0798 11.6773 45.8002 13.6206 45.2754 16.1935H41.3872C39.8794 16.1935 38.4615 16.7817 37.3959 17.8473L34.3958 20.8463C33.7646 21.4775 32.8919 21.8386 31.9999 21.8386H30.4839V16.1935H31.6129C32.8583 16.1935 33.871 15.1808 33.871 13.9354V2.64509C33.871 1.39973 32.8583 0.387024 31.6129 0.387024H6.77419C5.52884 0.387024 4.51613 1.39973 4.51613 2.64509V13.9354C4.51613 15.1808 5.52884 16.1935 6.77419 16.1935H7.90323V22.3172C5.91253 23.1915 4.51613 25.175 4.51613 27.4838V38.8882C1.94328 39.4131 0 41.6937 0 44.4193C0 47.1448 1.94328 49.4255 4.51613 49.9503V55.7096C4.51613 58.8222 7.04873 61.3548 10.1613 61.3548H20.3226C20.3226 62.6001 21.3353 63.6128 22.5806 63.6128H36.129C37.3744 63.6128 38.3871 62.6001 38.3871 61.3548H44.0323C47.1448 61.3548 49.6774 58.8222 49.6774 55.7096V51.1935C49.6774 49.3263 51.1973 47.8064 53.0645 47.8064H58.7097V45.5483H53.0645C49.952 45.5483 47.4194 48.0809 47.4194 51.1935V55.7096C47.4194 57.5768 45.8995 59.0967 44.0323 59.0967H38.3871C38.3871 57.8513 37.3744 56.8386 36.129 56.8386H35.8512L31.8792 42.938C31.56 41.8145 30.5214 41.0322 29.3548 41.0322C28.1883 41.0322 27.1497 41.8145 26.8305 42.938L22.8585 56.8386H22.5806C21.3353 56.8386 20.3226 57.8513 20.3226 59.0967H10.1613C8.29409 59.0967 6.77419 57.5768 6.77419 55.7096V49.9503C9.34704 49.4255 11.2903 47.1459 11.2903 44.4193C11.2903 41.6926 9.34704 39.4131 6.77419 38.8882V27.4838C6.77419 25.6166 8.29409 24.0967 10.1613 24.0967H14.6774V21.8386H10.1613V16.1935H28.2258V21.8386H16.9355V24.0967H31.9999C33.5077 24.0967 34.9256 23.5085 35.9912 22.4428L38.9913 19.4439C39.6225 18.8126 40.4952 18.4515 41.3872 18.4515H45.2754C45.8002 21.0244 48.0798 22.9677 50.8064 22.9677C53.5331 22.9677 55.8127 21.0244 56.3375 18.4515H64.3548C66.222 18.4515 67.7419 19.9714 67.7419 21.8386V42.1612C67.7419 44.0284 66.222 45.5483 64.3548 45.5483H60.9677V47.8064H64.3548C67.4674 47.8064 70 45.2738 70 42.1612V21.8386C70 18.7261 67.4674 16.1935 64.3548 16.1935ZM29.0015 43.5565C29.0919 43.2439 29.6189 43.2439 29.7093 43.5565L33.5027 56.8386H25.2059L29.0015 43.5565ZM22.5806 59.0967H36.129L36.1301 61.3548H22.5806V59.0967ZM9.03226 44.4193C9.03226 46.2865 7.51236 47.8064 5.64516 47.8064C3.77796 47.8064 2.25806 46.2865 2.25806 44.4193C2.25806 42.5521 3.77796 41.0322 5.64516 41.0322C7.51236 41.0322 9.03226 42.5521 9.03226 44.4193ZM27.0968 13.9354V9.41928H31.614L31.6151 13.9354H27.0968ZM18.0645 7.16122H13.5484V2.64509H18.0645V7.16122ZM20.3226 2.64509H24.8387V7.16122H20.3226V2.64509ZM18.0645 9.41928V13.9354H13.5484V9.41928H18.0645ZM20.3226 9.41928H24.8387V13.9354H20.3226V9.41928ZM31.614 7.16122H27.0968V2.64509H31.6129L31.614 7.16122ZM11.2903 2.64509V7.16122H6.77419V2.64509H11.2903ZM6.77419 9.41928H11.2903V13.9354H6.77419V9.41928ZM50.8064 20.7096C48.9392 20.7096 47.4194 19.1897 47.4194 17.3225C47.4194 15.4553 48.9392 13.9354 50.8064 13.9354C52.6737 13.9354 54.1936 15.4553 54.1936 17.3225C54.1936 19.1897 52.6737 20.7096 50.8064 20.7096Z" fill="white"/>
</svg>
